HIERARCHY
ROOT Hips
{
	OFFSET 0.00000 0.00000 0.00000
	CHANNELS 6 Xposition Yposition Zposition Zrotation Yrotation Xrotation 
	JOINT LHipJoint
	{
		OFFSET 0 0 0
		CHANNELS 3 Zrotation Yrotation Xrotation
		JOINT LeftUpLeg
		{
			OFFSET 1.30186 -1.90722 0.65024
			CHANNELS 3 Zrotation Yrotation Xrotation
			JOINT LeftLeg
			{
				OFFSET 2.56413 -7.04489 0.00000
				CHANNELS 3 Zrotation Yrotation Xrotation
				JOINT LeftFoot
				{
					OFFSET 2.79321 -7.67428 0.00000
					CHANNELS 3 Zrotation Yrotation Xrotation
					JOINT LeftToeBase
					{
						OFFSET 0.15723 -0.43198 2.08537
						CHANNELS 3 Zrotation Yrotation Xrotation
						End Site
						{
							OFFSET 0.00000 -0.00000 1.07411
						}
					}
				}
			}
		}
	}
	JOINT RHipJoint
	{
		OFFSET 0 0 0
		CHANNELS 3 Zrotation Yrotation Xrotation
		JOINT RightUpLeg
		{
			OFFSET -1.28627 -1.90723 0.65024
			CHANNELS 3 Zrotation Yrotation Xrotation
			JOINT RightLeg
			{
				OFFSET -2.56567 -7.04913 0.00000
				CHANNELS 3 Zrotation Yrotation Xrotation
				JOINT RightFoot
				{
					OFFSET -2.75597 -7.57198 0.00000
					CHANNELS 3 Zrotation Yrotation Xrotation
					JOINT RightToeBase
					{
						OFFSET -0.17500 -0.48081 2.22901
						CHANNELS 3 Zrotation Yrotation Xrotation
						End Site
						{
							OFFSET -0.00000 -0.00000 1.14762
						}
					}
				}
			}
		}
	}
	JOINT LowerBack
	{
		OFFSET 0 0 0
		CHANNELS 3 Zrotation Yrotation Xrotation
		JOINT Spine
		{
			OFFSET -0.04522 2.07467 -0.16566
			CHANNELS 3 Zrotation Yrotation Xrotation
			JOINT Spine1
			{
				OFFSET -0.01178 2.08825 -0.05393
				CHANNELS 3 Zrotation Yrotation Xrotation
				JOINT Neck
				{
					OFFSET 0 0 0
					CHANNELS 3 Zrotation Yrotation Xrotation
					JOINT Neck1
					{
						OFFSET -0.05182 1.80489 0.16014
						CHANNELS 3 Zrotation Yrotation Xrotation
						JOINT Head
						{
							OFFSET 0.14739 1.78840 -0.33342
							CHANNELS 3 Zrotation Yrotation Xrotation
							End Site
							{
								OFFSET 0.04364 1.83899 -0.13460
							}
						}
					}
				}
				JOINT LeftShoulder
				{
					OFFSET 0 0 0
					CHANNELS 3 Zrotation Yrotation Xrotation
					JOINT LeftArm
					{
						OFFSET 3.01264 1.29090 -0.06579
						CHANNELS 3 Zrotation Yrotation Xrotation
						JOINT LeftForeArm
						{
							OFFSET 5.55680 -0.00000 0.00000
							CHANNELS 3 Zrotation Yrotation Xrotation
							JOINT LeftHand
							{
								OFFSET 3.63979 -0.00000 -0.00000
								CHANNELS 3 Zrotation Yrotation Xrotation
								JOINT LeftFingerBase
								{
									OFFSET 0 0 0
									CHANNELS 3 Zrotation Yrotation Xrotation
									JOINT LeftHandIndex1
									{
										OFFSET 0.56942 -0.00000 -0.00000
										CHANNELS 3 Zrotation Yrotation Xrotation
										End Site
										{
											OFFSET 0.45908 -0.00000 -0.00000
										}
									}
								}
								JOINT LThumb
								{
									OFFSET 0 0 0
									CHANNELS 3 Zrotation Yrotation Xrotation
									End Site
									{
										OFFSET 0.46609 -0.00000 0.46609
									}
								}
							}
						}
					}
				}
				JOINT RightShoulder
				{
					OFFSET 0 0 0
					CHANNELS 3 Zrotation Yrotation Xrotation
					JOINT RightArm
					{
						OFFSET -3.15796 1.37283 -0.36748
						CHANNELS 3 Zrotation Yrotation Xrotation
						JOINT RightForeArm
						{
							OFFSET -5.34339 -0.00000 0.00000
							CHANNELS 3 Zrotation Yrotation Xrotation
							JOINT RightHand
							{
								OFFSET -3.65101 -0.00000 -0.00000
								CHANNELS 3 Zrotation Yrotation Xrotation
								JOINT RightFingerBase
								{
									OFFSET 0 0 0
									CHANNELS 3 Zrotation Yrotation Xrotation
									JOINT RightHandIndex1
									{
										OFFSET -0.69425 -0.00000 -0.00000
										CHANNELS 3 Zrotation Yrotation Xrotation
										End Site
										{
											OFFSET -0.55972 -0.00000 -0.00000
										}
									}
								}
								JOINT RThumb
								{
									OFFSET 0 0 0
									CHANNELS 3 Zrotation Yrotation Xrotation
									End Site
									{
										OFFSET -0.56827 -0.00000 0.56827
									}
								}
							}
						}
					}
				}
			}
		}
	}
}
MOTION
Frames: 12
Frame Time: .0083333
12.3109 18.2226 -18.3314 0 0 0 0 0 0 -21 0 0 0 0 0 0 0 0 0 0 0 0 0 0 21 0 0 0 0 0 0 0 0 0 0 0 0 0 0 0 0 0 0 0 0 0 0 -16 0 0 21 0 0 11 0 0 0 -8 0 0 0 0 0 0 0 0 0 0 0 0 0 0 0 0 0 0 0 0 8 0 0 0 0 0 0 0 0 0 0 0 0 0 0 0 0 0
12.3109 18.2226 -18.3314 -1.2272 -67.9638 4.7292 0.0000 0.0000 0.0000 -15.2556 -9.0706 -1.7122 1.1739 6.8771 19.3517 1.3179 5.8301 -24.4998 0.0147 -0.7834 -2.1530 0.0000 0.0000 0.0000 20.3214 13.3727 2.3706 -0.6075 -4.9888 13.8767 0.8845 -18.4464 -16.0343 -0.0479 -1.4118 3.8826 2.0926 2.7390 -4.1017 1.0450 3.5187 -0.1129 0.1142 1.7674 2.2406 9.7611 11.1380 -1.9082 -10.9144 16.1152 16.7157 -3.8266 7.6177 7.1023 0.0000 0.0000 0.0000 -86.6643 5.8728 17.4677 15.1287 -24.3251 -3.2788 -0.0000 -0.0000 3.2659 26.4923 18.9461 9.1921 -7.1250 0.0000 -0.0000 -1.7453 50.9558 -0.2562 0.0000 0.0000 0.0000 87.3798 -8.2651 0.2476 -15.5321 24.8822 -3.4467 0.0000 0.0000 6.4130 -20.4845 29.4492 -10.4075 7.1250 -0.0000 -0.0000 6.0135 0.9468 6.1458
12.3201 18.2238 -18.3420 -3.1988 -67.8239 6.6960 0.0000 0.0000 0.0000 -14.3107 -9.1678 -2.0163 1.1855 6.9097 19.4481 1.3072 5.7173 -24.3467 0.0160 -0.8156 -2.2417 0.0000 0.0000 0.0000 21.2330 13.8065 2.3671 -0.5988 -4.9535 13.7760 0.9790 -19.0288 -15.9212 -0.0363 -1.2292 3.3797 2.8017 2.7359 -4.0762 1.2996 3.4740 -0.1952 -0.0256 1.7481 2.1678 9.0503 11.0638 -1.6001 -10.6394 16.0013 16.4448 -3.6697 7.5576 6.8655 0.0000 0.0000 0.0000 -86.8011 5.9566 17.5952 15.2176 -24.4484 -3.3155 -0.0000 -0.0000 2.8892 26.5899 18.0301 8.8066 -7.1250 0.0000 -0.0000 -1.4602 49.9756 -0.1791 0.0000 0.0000 0.0000 87.2757 -8.3054 0.3310 -15.5346 24.8855 -3.4478 0.0000 0.0000 6.4042 -20.7081 28.7480 -10.3048 7.1250 -0.0000 -0.0000 5.7968 0.2729 5.8543
12.3036 18.2174 -18.3246 0.3358 -68.1417 3.0777 0.0000 0.0000 0.0000 -16.0452 -9.1039 -1.1518 1.1302 6.7522 18.9832 1.2951 6.2285 -24.5678 0.0251 -1.0231 -2.8123 0.0000 0.0000 0.0000 19.7056 13.4075 2.4039 -0.6480 -5.1496 14.3358 0.8678 -18.3822 -16.1605 -0.0281 -1.0815 2.9732 1.5253 2.6589 -4.0052 0.9759 3.4432 -0.0008 0.3524 1.7258 2.2713 9.1634 11.2107 -1.3406 -10.9946 16.2524 16.2399 -3.7894 7.6758 6.8214 -0.0000 -0.0000 0.0000 -86.9334 5.9277 17.3219 15.2475 -24.4898 -3.3279 -0.0000 -0.0000 2.7216 28.4525 28.2946 14.4054 -7.1250 0.0000 -0.0000 -2.5169 61.4407 -1.0077 -0.0000 -0.0000 0.0000 87.1321 -8.2180 0.5034 -15.4483 24.7669 -3.4115 0.0000 0.0000 6.4887 -20.8460 28.3325 -10.2436 7.1250 -0.0000 -0.0000 5.6654 -0.1265 5.6808
12.2979 18.2174 -18.3195 2.0695 -68.1721 1.3784 0.0000 0.0000 0.0000 -16.8358 -9.1118 -1.0072 1.1371 6.7721 19.0419 1.3033 6.3293 -24.6956 0.0291 -1.1019 -3.0293 0.0000 0.0000 0.0000 18.9449 13.1469 2.5022 -0.6416 -5.1246 14.2643 0.7949 -17.9879 -16.4126 -0.0564 -1.5326 4.2155 0.8272 2.5125 -4.0167 0.7553 3.2871 0.2029 0.5123 1.6431 2.4597 9.9540 11.5548 -2.0438 -11.5161 16.7604 16.5015 -3.9646 7.8968 7.2006 0.0000 0.0000 0.0000 -86.8223 5.4895 16.8821 15.1241 -24.3187 -3.2769 -0.0000 -0.0000 2.8244 23.9489 20.3133 8.7655 -7.1250 0.0000 -0.0000 -4.6453 51.9716 -0.7988 0.0000 0.0000 0.0000 87.1907 -7.7739 0.6969 -15.3114 24.5781 -3.3544 0.0000 0.0000 6.7626 -20.8438 28.7645 -10.3824 7.1250 -0.0000 -0.0000 5.7193 0.3160 5.7795
12.3010 18.2204 -18.3262 1.1414 -68.0533 2.4194 0.0000 0.0000 0.0000 -16.3587 -9.1346 -1.1822 1.1192 6.7203 18.8892 1.2939 6.1904 -24.5343 0.0171 -0.8438 -2.3191 0.0000 0.0000 0.0000 19.3384 13.3621 2.2239 -0.6597 -5.1947 14.4647 0.8180 -18.1923 -16.5323 -0.0574 -1.5464 4.2538 1.1883 2.6285 -4.0695 0.9205 3.4197 -0.0425 0.4836 1.7109 2.2478 9.5552 11.4819 -1.9643 -11.2119 16.6626 16.7729 -3.8241 7.8415 7.2012 -0.0000 -0.0000 0.0000 -86.9437 5.7095 17.2299 15.0278 -24.1848 -3.2373 -0.0000 -0.0000 3.0590 15.3592 11.5228 3.1406 -7.1250 0.0000 -0.0000 -10.5252 41.6826 0.8720 -0.0000 -0.0000 0.0000 87.0626 -8.3223 0.5326 -15.3779 24.6699 -3.3821 0.0000 0.0000 6.6442 -20.7066 29.2662 -10.4697 7.1250 -0.0000 -0.0000 5.8616 0.8028 5.9743
12.3141 18.2250 -18.3444 -2.4091 -67.7082 6.0950 0.0000 0.0000 0.0000 -14.6235 -9.2035 -1.7993 1.1123 6.7004 18.8308 1.2584 6.0263 -24.1512 0.0231 -0.9817 -2.6984 0.0000 0.0000 0.0000 20.9036 13.9480 1.8434 -0.6682 -5.2274 14.5583 0.9595 -19.0277 -16.2743 -0.0244 -1.0085 2.7723 2.3089 2.3976 -4.2656 1.2633 3.0387 -0.0036 0.1982 1.5301 2.4372 9.6703 11.7909 -2.9120 -11.1463 17.0497 17.0599 -3.7094 7.9931 7.5104 -0.0000 -0.0000 0.0000 -86.8481 5.3670 16.8420 15.1524 -24.3579 -3.2885 -0.0000 -0.0000 2.8814 27.8260 16.5947 8.5725 -7.1250 0.0000 -0.0000 0.0088 48.6024 0.0008 -0.0000 -0.0000 0.0000 87.1093 -7.8187 1.0180 -15.3225 24.5934 -3.3590 0.0000 0.0000 6.6771 -20.8524 29.2335 -10.5380 7.1250 -0.0000 -0.0000 5.7726 0.7977 5.8822
12.3141 18.2267 -18.3452 -1.0363 -67.8285 4.7462 0.0000 0.0000 0.0000 -15.2828 -9.4486 -1.5961 1.1129 6.7021 18.8359 1.2767 6.3212 -24.4826 0.0279 -1.0777 -2.9625 0.0000 0.0000 0.0000 20.3409 13.9763 1.9478 -0.6663 -5.2202 14.5377 0.9802 -19.0937 -16.0843 -0.0125 -0.7225 1.9857 1.7100 2.3656 -4.1629 1.1390 3.0330 0.0868 0.4016 1.5227 2.4479 9.6380 11.8802 -2.9089 -11.2299 17.1774 16.9009 -3.7173 8.0513 7.4773 -0.0000 0.0000 0.0000 -86.8552 5.2935 16.9053 15.2743 -24.5269 -3.3390 -0.0000 -0.0000 2.6460 25.0818 12.8807 5.9565 -7.1250 0.0000 -0.0000 -2.0520 44.1403 0.0436 -0.0000 0.0000 0.0000 87.0775 -7.6086 0.8452 -15.2493 24.4922 -3.3286 0.0000 0.0000 6.7467 -20.6505 29.0809 -10.3804 7.1250 -0.0000 -0.0000 5.8713 0.6026 5.9640
12.2959 18.2243 -18.3257 1.2742 -68.1140 2.3556 0.0000 0.0000 0.0000 -16.4909 -9.6250 -1.0760 1.1308 6.7539 18.9884 1.3412 6.4620 -25.0732 0.0125 -0.7225 -1.9854 0.0000 0.0000 0.0000 19.2737 13.3588 2.2042 -0.6487 -5.1521 14.3429 0.8965 -18.4645 -15.8645 -0.0102 -0.6507 1.7882 0.9750 2.4133 -4.2444 0.8706 3.1396 0.2639 0.5517 1.5703 2.6518 9.6941 11.9362 -2.6544 -11.3506 17.2584 16.5980 -3.7734 8.1047 7.3594 -0.0000 -0.0000 0.0000 -86.8332 5.2145 16.8659 15.2507 -24.4942 -3.3292 -0.0000 -0.0000 2.7518 26.0783 16.1874 7.7696 -7.1250 0.0000 -0.0000 -1.6226 47.8835 -0.1155 -0.0000 -0.0000 0.0000 87.0632 -7.5304 0.6322 -15.2116 24.4400 -3.3130 0.0000 0.0000 6.7415 -19.9183 29.2007 -10.0253 7.1250 -0.0000 -0.0000 6.3127 0.5852 6.4158
12.2922 18.2256 -18.3229 1.2339 -68.1241 2.3687 0.0000 0.0000 0.0000 -16.4948 -9.6265 -0.8728 1.1012 6.6680 18.7353 1.3229 6.5095 -24.9626 0.0077 -0.5677 -1.5600 0.0000 0.0000 0.0000 19.2851 13.3731 2.1001 -0.6747 -5.2525 14.6301 0.8531 -18.2776 -16.1441 -0.0182 -0.8708 2.3933 1.0344 2.4160 -4.3079 0.8614 3.1389 0.3088 0.5135 1.5709 2.7375 9.8735 11.8551 -3.1858 -11.3999 17.1524 17.0291 -3.7894 8.0264 7.6023 0.0000 -0.0000 0.0000 -86.8215 5.1311 16.8260 15.2169 -24.4474 -3.3152 -0.0000 -0.0000 2.8058 26.3146 17.1748 8.3084 -7.1250 0.0000 -0.0000 -1.5690 48.9976 -0.1547 0.0000 -0.0000 0.0000 87.0364 -7.5295 0.6833 -15.1817 24.3986 -3.3006 0.0000 0.0000 6.7916 -19.8305 29.3286 -10.0174 7.1250 -0.0000 -0.0000 6.3791 0.6989 6.4966
12.3073 18.2317 -18.3432 -2.4176 -67.7848 6.0763 0.0000 0.0000 0.0000 -14.6917 -9.5013 -1.4468 1.0794 6.6037 18.5463 1.2554 6.3304 -24.3201 0.0143 -0.7714 -2.1200 0.0000 0.0000 0.0000 20.9188 14.0567 1.7831 -0.6950 -5.3292 14.8498 0.9026 -18.7919 -16.6346 -0.0478 -1.4103 3.8785 2.2963 2.3908 -4.3666 1.2761 3.0236 0.1391 0.2263 1.5244 2.6393 9.6291 11.8781 -3.3678 -11.2421 17.1775 17.1494 -3.6877 8.0238 7.6400 -0.0000 0.0000 0.0000 -86.9116 5.1254 16.7351 15.2344 -24.4716 -3.3224 -0.0000 -0.0000 2.9073 26.2938 17.3500 8.3818 -7.1250 0.0000 -0.0000 -1.6220 49.1853 -0.1674 -0.0000 0.0000 0.0000 86.9875 -7.5764 0.6722 -15.1039 24.2906 -3.2686 0.0000 0.0000 7.0237 -20.0953 29.4448 -10.1956 7.1250 -0.0000 -0.0000 6.2391 0.8676 6.3705
12.2900 18.2261 -18.3253 0.3490 -68.0962 3.2415 0.0000 0.0000 0.0000 -16.0828 -9.4914 -0.8699 1.0729 6.5846 18.4904 1.2920 6.5600 -24.7554 0.0102 -0.6520 -1.7918 0.0000 0.0000 0.0000 19.6814 13.5866 2.0001 -0.6996 -5.3463 14.8989 0.7978 -18.1245 -16.7017 -0.0513 -1.4623 4.0219 1.3304 2.4526 -4.3745 1.0007 3.1657 0.2902 0.4960 1.5869 2.7640 9.5291 11.8768 -3.3586 -11.2570 17.1868 17.1392 -3.6777 8.0215 7.6283 0.0000 0.0000 0.0000 -87.0007 5.1122 16.7451 15.2489 -24.4917 -3.3284 -0.0000 -0.0000 2.7632 26.5857 18.3330 8.9456 -7.1250 0.0000 -0.0000 -1.5246 50.3051 -0.1994 0.0000 0.0000 0.0000 86.9440 -7.6739 0.6967 -15.1144 24.3052 -3.2729 0.0000 0.0000 7.0353 -20.1406 29.5866 -10.2639 7.1250 -0.0000 -0.0000 6.2301 1.0207 6.3777
